<svg width="70" height="70" fill="none" xmlns="http://www.w3.org/2000/svg"><path d="M7 12.833h7a1.167 1.167 0 100-2.333H7a1.167 1.167 0 100 2.333zm12.833 0h10.5a1.167 1.167 0 100-2.333h-10.5a1.167 1.167 0 000 2.333zM7 25.667h37.333a1.167 1.167 0 000-2.334H7a1.167 1.167 0 100 2.334zm0 4.666h16.333a1.167 1.167 0 100-2.333H7a1.167 1.167 0 100 2.333zm0 9.334h16.333a1.167 1.167 0 000-2.334H7a1.167 1.167 0 100 2.334zM7 49h16.333a1.167 1.167 0 000-2.333H7A1.167 1.167 0 007 49zm0 9.333h16.333a1.167 1.167 0 100-2.333H7a1.167 1.167 0 100 2.333z" fill="#fff"/><path d="M69.3 33.985L56 28.241V3.5A3.5 3.5 0 0052.5 0H8.167a3.5 3.5 0 00-3.5 3.5v1.167H3.5a3.5 3.5 0 00-3.5 3.5V66.5A3.5 3.5 0 003.5 70h44.333a3.49 3.49 0 002.503-1.065l.956.68a2.086 2.086 0 002.416 0l11.287-8.035A11.883 11.883 0 0070 51.927V35.056c0-.464-.274-.885-.7-1.071zM7 3.5c0-.644.522-1.167 1.167-1.167H52.5c.644 0 1.167.523 1.167 1.167v23.733l-.7-.304a1.166 1.166 0 00-.924 0l-.7.305v-7.4c0-.026-.013-.05-.016-.076a1.098 1.098 0 00-.055-.287c-.009-.027-.008-.055-.018-.081-.01-.026-.019-.026-.024-.04a1.167 1.167 0 00-.234-.341l-14-14a1.167 1.167 0 00-.342-.234c-.015-.007-.025-.019-.04-.024-.013-.006-.053-.01-.079-.018a1.166 1.166 0 00-.29-.057c-.03.003-.053-.01-.078-.01H7V3.5zm30.333 5.15L47.35 18.667H38.5a1.167 1.167 0 01-1.167-1.167V8.65zm10.5 59.017H3.5A1.167 1.167 0 012.333 66.5V8.167C2.333 7.522 2.856 7 3.5 7H35v10.5a3.5 3.5 0 003.5 3.5H49v7.241l-3.755 1.626a1.14 1.14 0 00.255-.7c0-.645-.522-1.167-1.167-1.167H28a1.167 1.167 0 000 2.333h16.157l-5.401 2.334H7A1.167 1.167 0 107 35h28.008c0 .019-.008.036-.008.056v2.277h-7a1.167 1.167 0 000 2.334h7V42H7a1.167 1.167 0 100 2.333h28v2.334h-7A1.167 1.167 0 1028 49h7v2.333H7a1.167 1.167 0 000 2.334h28.146c.116.796.314 1.578.59 2.333H28a1.167 1.167 0 000 2.333h8.914c.552.859 1.21 1.643 1.962 2.334H7A1.167 1.167 0 107 63h35l6.356 4.524c-.16.09-.34.138-.523.143zm19.834-15.74a9.546 9.546 0 01-4.024 7.752L52.5 67.61l-11.143-7.934a9.546 9.546 0 01-4.024-7.75v-16.1l2.112-.912.022-.01L52.5 29.27l15.167 6.552v16.105z" fill="#fff"/><path d="M52.033 32.012l-11.666 5.04a1.167 1.167 0 00-.7 1.071v13.804a7.208 7.208 0 003.042 5.85l9.114 6.488c.405.288.949.288 1.354 0l9.114-6.488a7.21 7.21 0 003.042-5.85V38.123a1.164 1.164 0 00-.7-1.07l-11.666-5.04a1.167 1.167 0 00-.934 0zM63 38.895v13.032a4.874 4.874 0 01-2.064 3.956l-8.436 6-8.436-6.007A4.871 4.871 0 0142 51.927V38.89l10.5-4.535 10.5 4.54z" fill="#1488CC"/><path d="M46.2 49.233a1.167 1.167 0 10-1.4 1.867l4.667 3.5a1.167 1.167 0 001.61-.204l9.334-11.667a1.167 1.167 0 10-1.822-1.458l-8.627 10.785-3.762-2.823z" fill="#1488CC"/></svg>