<svg width="66" height="60" fill="none" xmlns="http://www.w3.org/2000/svg"><path d="M58.91 4.907h-1.59v-2.3a1.934 1.934 0 00-3.868 0v2.3h-7.326V2.623a1.934 1.934 0 00-3.867 0v2.284h-7.325v-2.3a1.934 1.934 0 00-3.868 0v2.3h-7.325V2.623a1.934 1.934 0 00-3.867 0v2.284h-7.326v-2.3a1.934 1.934 0 00-3.867 0v2.3H7.089C3.18 4.907 0 8.091 0 12.004V52.23c0 3.913 3.18 7.097 7.09 7.097h51.82c3.91 0 7.09-3.184 7.09-7.097V12.004c0-3.913-3.18-7.097-7.09-7.097zM7.09 8.774h1.59v2.27a1.934 1.934 0 003.868 0v-2.27h7.326v2.285a1.934 1.934 0 103.867 0V8.774h7.325v2.27a1.934 1.934 0 103.868 0v-2.27h7.325v2.285a1.934 1.934 0 003.867 0V8.774h7.326v2.27a1.934 1.934 0 103.867 0v-2.27h1.592a3.23 3.23 0 013.222 3.23v3.232H3.867v-3.231a3.23 3.23 0 013.222-3.23zM58.91 55.46H7.09a3.23 3.23 0 01-3.223-3.23V19.103h58.266V52.23a3.23 3.23 0 01-3.222 3.23z" fill="#fff"/><path d="M14.214 23.395h-3.79a1.934 1.934 0 000 3.867h3.79a1.934 1.934 0 100-3.867zm10.39 0h-3.79a1.934 1.934 0 000 3.867h3.79a1.934 1.934 0 000-3.867zm10.39 0h-3.79a1.934 1.934 0 000 3.867h3.79a1.934 1.934 0 000-3.867zm6.402 3.867h3.79a1.934 1.934 0 000-3.867h-3.79a1.934 1.934 0 000 3.867zm14.18-3.867h-3.79a1.934 1.934 0 000 3.867h3.79a1.934 1.934 0 100-3.867zm-41.362 7.819h-3.79a1.934 1.934 0 000 3.867h3.79a1.934 1.934 0 100-3.867zm10.39 0h-3.79a1.934 1.934 0 000 3.867h3.79a1.934 1.934 0 000-3.867zm10.39 0h-3.79a1.934 1.934 0 000 3.867h3.79a1.934 1.934 0 000-3.867zm-20.78 7.782h-3.79a1.934 1.934 0 000 3.868h3.79a1.934 1.934 0 100-3.867zm10.39 0h-3.79a1.934 1.934 0 000 3.868h3.79a1.934 1.934 0 000-3.867zm10.39 0h-3.79a1.934 1.934 0 000 3.868h3.79a1.934 1.934 0 000-3.867zm-20.78 7.82h-3.79a1.934 1.934 0 000 3.868h3.79a1.934 1.934 0 100-3.868zm10.39 0h-3.79a1.934 1.934 0 000 3.868h3.79a1.934 1.934 0 000-3.868zm10.39 0h-3.79a1.934 1.934 0 000 3.868h3.79a1.934 1.934 0 000-3.868zm6.402-11.735h3.79a1.934 1.934 0 000-3.867h-3.79a1.934 1.934 0 000 3.867zm14.18-3.867h-3.79a1.934 1.934 0 000 3.867h3.79a1.934 1.934 0 100-3.867z" fill="#fff"/><path d="M55.576 39.254h-14.18a1.934 1.934 0 00-1.934 1.934v7.562c0 1.068.866 1.934 1.934 1.934h14.18a1.934 1.934 0 001.934-1.934v-7.562a1.934 1.934 0 00-1.934-1.934zm-1.934 7.562H43.33v-3.695h10.312v3.695z" fill="#0072B5"/></svg>