<svg width="75" height="74" fill="none" xmlns="http://www.w3.org/2000/svg"><mask id="a" fill="#fff"><path d="M67.5 39.172a6.527 6.527 0 00-4.76 2.071l-1.744 1.872V29.983a6.487 6.487 0 007.246-2.067 6.495 6.495 0 00-1.015-9.14l-6.23-4.983V2.175A2.169 2.169 0 0058.827.01h-8.671c-1.197 0-2.168.97-2.168 2.167v1.212l-2.443-1.954a6.47 6.47 0 00-8.123 0l-21.679 17.34a6.495 6.495 0 00-1.018 9.14c1.81 2.267 4.769 2.951 7.247 2.073v8.944a15.067 15.067 0 00-4.344 2.09 6.512 6.512 0 00-6.496-6.184h-8.96c-1.198 0-2.169.97-2.169 2.167v34.828A2.17 2.17 0 002.172 74h8.961a6.514 6.514 0 006.142-4.368c.118.02.239.033.362.033h32.52c4.683 0 9.222-2.323 12.14-6.215l10.409-13.875a6.45 6.45 0 001.298-3.9 6.511 6.511 0 00-6.504-6.503zM13.301 67.497a2.17 2.17 0 01-2.168 2.168H4.34V39.172h6.793a2.17 2.17 0 012.168 2.168v26.157zM52.325 4.344h4.336v5.98l-4.336-3.468V4.344zM21.158 25.546c-.931.746-2.295.6-3.046-.34a2.163 2.163 0 01.34-3.045L40.13 4.82a2.157 2.157 0 012.708 0l21.68 17.342a2.163 2.163 0 01.337 3.047 2.164 2.164 0 01-3.045.337L42.839 10.372a2.165 2.165 0 00-2.709 0L21.158 25.546zm24.663 4.955h-8.672c-1.197 0-2.168.97-2.168 2.168v8.346a15.165 15.165 0 00-8.672-2.716V26.978L41.485 14.84 56.66 26.978V47.77l-.292.313a6.515 6.515 0 00-6.212-4.576h-2.168V32.67c0-1.197-.97-2.168-2.168-2.168zm-2.168 4.336v8.67h-4.336v-8.67h4.336zm25.584 12.136L58.829 60.85c-2.105 2.805-5.346 4.48-8.672 4.48h-32.52V46.655l1.511-1.33c4.083-3.591 10.24-3.591 14.322 0 .767.675 1.097.978 1.413 1.217.139.105 1.5 1.3 2.266 1.3h13.008a2.17 2.17 0 012.168 2.169 2.17 2.17 0 01-2.168 2.167H32.813a2.168 2.168 0 100 4.336H51.61a6.526 6.526 0 004.759-2.071l9.544-10.245a2.17 2.17 0 013.323 2.775z"/></mask><path d="M67.5 39.172a6.527 6.527 0 00-4.76 2.071l-1.744 1.872V29.983a6.487 6.487 0 007.246-2.067 6.495 6.495 0 00-1.015-9.14l-6.23-4.983V2.175A2.169 2.169 0 0058.827.01h-8.671c-1.197 0-2.168.97-2.168 2.167v1.212l-2.443-1.954a6.47 6.47 0 00-8.123 0l-21.679 17.34a6.495 6.495 0 00-1.018 9.14c1.81 2.267 4.769 2.951 7.247 2.073v8.944a15.067 15.067 0 00-4.344 2.09 6.512 6.512 0 00-6.496-6.184h-8.96c-1.198 0-2.169.97-2.169 2.167v34.828A2.17 2.17 0 002.172 74h8.961a6.514 6.514 0 006.142-4.368c.118.02.239.033.362.033h32.52c4.683 0 9.222-2.323 12.14-6.215l10.409-13.875a6.45 6.45 0 001.298-3.9 6.511 6.511 0 00-6.504-6.503zM13.301 67.497a2.17 2.17 0 01-2.168 2.168H4.34V39.172h6.793a2.17 2.17 0 012.168 2.168v26.157zM52.325 4.344h4.336v5.98l-4.336-3.468V4.344zM21.158 25.546c-.931.746-2.295.6-3.046-.34a2.163 2.163 0 01.34-3.045L40.13 4.82a2.157 2.157 0 012.708 0l21.68 17.342a2.163 2.163 0 01.337 3.047 2.164 2.164 0 01-3.045.337L42.839 10.372a2.165 2.165 0 00-2.709 0L21.158 25.546zm24.663 4.955h-8.672c-1.197 0-2.168.97-2.168 2.168v8.346a15.165 15.165 0 00-8.672-2.716V26.978L41.485 14.84 56.66 26.978V47.77l-.292.313a6.515 6.515 0 00-6.212-4.576h-2.168V32.67c0-1.197-.97-2.168-2.168-2.168zm-2.168 4.336v8.67h-4.336v-8.67h4.336zm25.584 12.136L58.829 60.85c-2.105 2.805-5.346 4.48-8.672 4.48h-32.52V46.655l1.511-1.33c4.083-3.591 10.24-3.591 14.322 0 .767.675 1.097.978 1.413 1.217.139.105 1.5 1.3 2.266 1.3h13.008a2.17 2.17 0 012.168 2.169 2.17 2.17 0 01-2.168 2.167H32.813a2.168 2.168 0 100 4.336H51.61a6.526 6.526 0 004.759-2.071l9.544-10.245a2.17 2.17 0 013.323 2.775z" fill="#fff"/><path d="M62.74 41.243l-.365-.34.366.34zm-1.744 1.872h-.5v1.27l.866-.929-.366-.34zm0-13.132l.167-.471-.667-.236v.707h.5zm7.246-2.067l-.39-.313v.001l.39.312zm-1.015-9.14l-.313.39.313-.39zm-6.23-4.983h-.5v.24l.187.15.312-.39zM47.988 3.388l-.313.39.813.65v-1.04h-.5zm-2.443-1.954l.313-.39-.313.39zm-8.123 0l-.313-.39.313.39zm-21.679 17.34l.312.392-.312-.391zm-1.018 9.14l.39-.312-.39.312zm7.247 2.073h.5v-.707l-.667.236.167.471zm0 8.944l.142.48.358-.107v-.373h-.5zm-4.344 2.09l-.5.024.045.902.741-.517-.286-.41zm-.354 28.611l.084-.493-.417-.07-.139.398.472.165zm45.022-6.182l-.4-.3.4.3zm10.409-13.875l.4.3-.4-.3zm1.298-3.9h.5-.5zM13.301 67.497v-.5h-.5v.5h.5zm-8.96 2.168h-.5v.5h.5v-.5zm0-30.493v-.5h-.5v.5h.5zm8.96 28.325v.5h.5v-.5h-.5zM52.325 4.344v-.5h-.5v.5h.5zm4.336 0h.5v-.5h-.5v.5zm0 5.98l-.313.39.813.65v-1.04h-.5zm-4.336-3.468h-.5v.24l.187.15.313-.39zm-31.167 18.69l-.312-.39.312.39zm-3.046-.34l.39-.312-.39.312zm.34-3.045l.312.39-.312-.39zM40.13 4.82l-.312-.39.312.39zm2.708 0l.312-.39v-.001l-.313.39zm21.68 17.342l-.312.39v.001l.313-.39zm.337 3.047l-.39-.313h-.001l.39.313zm-3.045.337l.313-.39-.313.39zM42.839 10.372l-.312.39.312-.39zm-2.709 0l.313.39-.313-.39zm-5.149 30.642l-.286.41.786.548v-.958h-.5zM26.309 38.3h-.5v.5h.5v-.5zm0-11.321l-.312-.39-.188.15v.24h.5zM41.485 14.84l.312-.39-.312-.25-.312.25.312.39zM56.66 26.978h.5v-.24l-.188-.15-.312.39zm0 20.792l.365.34.135-.143v-.197h-.5zm-.292.313l-.477.148.255.823.588-.63-.366-.341zm-8.38-4.576h-.5v.5h.5v-.5zm0-10.838h.5-.5zm-4.336 10.839v.5h.5v-.5h-.5zm-4.336 0h-.5v.5h.5v-.5zm0-8.671v-.5h-.5v.5h.5zm29.92 12.136l-.4-.3.4.3zM58.829 60.85l-.4-.3.4.3zm-41.192 4.48h-.5v.5h.5v-.5zm0-18.674l-.33-.375-.17.15v.225h.5zm1.511-1.33l-.33-.375.33.376zm14.322 0l-.33.376.33-.375zm1.413 1.217l-.301.4.301-.4zm21.486 7.901l.366.34-.366-.34zm9.544-10.245l-.365-.34.365.34zm3.755 1.477h-.5.5zM67.5 38.672a7.027 7.027 0 00-5.125 2.23l.731.682a6.027 6.027 0 014.394-1.912v-1zm-5.125 2.23l-1.744 1.873.731.681 1.744-1.872-.731-.682zm-.879 2.213V29.983h-1v13.133h1zm-.666-12.66c2.754.974 5.9.157 7.803-2.227l-.782-.624a5.987 5.987 0 01-6.688 1.908l-.333.942zm7.802-2.226a6.995 6.995 0 00-1.093-9.844l-.624.782a5.995 5.995 0 01.937 8.436l.78.626zm-1.093-9.844l-6.23-4.983-.625.78 6.23 4.984.625-.78zm-6.043-4.593V2.177h-1v11.617h1zm0-11.616A2.668 2.668 0 0058.828-.49v1c.922 0 1.668.747 1.668 1.667h1zM58.828-.49h-8.671v1h8.672v-1zm-8.671 0a2.668 2.668 0 00-2.668 2.667h1c0-.92.747-1.667 1.668-1.667v-1zm-2.668 2.667v1.212h1V2.176h-1zm.812.821L45.86 1.043l-.625.781 2.442 1.954.625-.78zm-2.443-1.954a6.97 6.97 0 00-8.748 0l.625.782a5.97 5.97 0 017.5 0l.623-.782zm-8.748 0L15.432 18.385l.625.781 21.678-17.34-.625-.781zM15.432 18.385a6.995 6.995 0 00-1.097 9.842l.781-.625a5.995 5.995 0 01.94-8.435l-.624-.782zm-1.097 9.842c1.951 2.443 5.137 3.178 7.805 2.233l-.334-.943a6.004 6.004 0 01-6.69-1.914l-.78.624zm7.138 1.761v8.944h1v-8.944h-1zm.358 8.464a15.567 15.567 0 00-4.488 2.16l.572.82a14.568 14.568 0 014.2-2.02l-.284-.96zm-3.702 2.545a7.012 7.012 0 00-6.996-6.66v1a6.012 6.012 0 015.997 5.709l.999-.049zm-6.996-6.66h-8.96v1h8.96v-1zm-8.96 0a2.668 2.668 0 00-2.669 2.668h1c0-.92.747-1.667 1.668-1.667v-1zm-2.669 2.668v34.828h1V37.004h-1zm0 34.828A2.668 2.668 0 002.172 74.5v-1a1.668 1.668 0 01-1.668-1.668h-1zM2.172 74.5h8.961v-1h-8.96v1zm8.961 0c3.059 0 5.661-1.97 6.614-4.703l-.944-.33a6.014 6.014 0 01-5.67 4.033v1zm6.059-4.375c.138.023.287.04.445.04v-1c-.09 0-.18-.01-.278-.026l-.167.986zm.445.04h32.52v-1h-32.52v1zm32.52 0c4.848 0 9.532-2.403 12.54-6.415l-.8-.6c-2.828 3.771-7.221 6.015-11.74 6.015v1zm12.54-6.415l10.409-13.875-.8-.6L61.897 63.15l.8.6zm10.409-13.875a6.95 6.95 0 001.398-4.2h-1a5.95 5.95 0 01-1.198 3.6l.8.6zm1.398-4.2a7.011 7.011 0 00-7.004-7.003v1a6.011 6.011 0 016.004 6.003h1zM12.801 67.497a1.67 1.67 0 01-1.668 1.668v1a2.67 2.67 0 002.668-2.668h-1zm-1.668 1.668H4.34v1h6.793v-1zm-6.293.5V39.172h-1v30.493h1zm-.5-29.993h6.793v-1H4.34v1zm6.793 0c.92 0 1.668.749 1.668 1.668h1a2.67 2.67 0 00-2.668-2.668v1zm1.668 1.668v26.157h1V41.34h-1zm.5 25.657v1-1zM52.325 4.844h4.336v-1h-4.336v1zm3.836-.5v5.98h1v-5.98h-1zm.812 5.59l-4.336-3.469-.625.781 4.336 3.469.625-.781zm-4.148-3.078V4.344h-1v2.512h1zm-31.98 18.3a1.665 1.665 0 01-2.342-.262l-.782.624a2.665 2.665 0 003.75.419l-.625-.781zm-2.343-.262a1.663 1.663 0 01.262-2.342l-.624-.781a2.663 2.663 0 00-.418 3.748l.78-.625zm.262-2.342L40.444 5.21l-.626-.78L18.14 21.77l.625.782zM40.444 5.21a1.657 1.657 0 012.082 0l.625-.781a2.657 2.657 0 00-3.332 0l.624.781zm2.082 0l21.681 17.343.625-.781L43.15 4.429l-.625.781zm21.681 17.343c.717.572.84 1.617.258 2.343l.781.625a2.663 2.663 0 00-.414-3.75l-.624.782zm.258 2.344a1.664 1.664 0 01-2.342.259l-.625.78a2.664 2.664 0 003.748-.415l-.781-.624zm-2.342.258L43.151 9.981l-.624.781 18.972 15.174.624-.78zM43.151 9.981a2.664 2.664 0 00-1.666-.584v1c.369 0 .737.122 1.042.365l.624-.78zm-1.666-.584c-.59 0-1.18.195-1.667.584l.625.781a1.665 1.665 0 011.042-.365v-1zm-1.667.584c-.798.64-18.171 14.534-18.972 15.175l.625.78 18.972-15.174-.625-.78zm6.003 20.02h-8.672v1h8.672v-1zm-8.672 0a2.668 2.668 0 00-2.668 2.668h1c0-.921.747-1.668 1.668-1.668v-1zM34.48 32.67v8.346h1V32.67h-1zm.786 7.935a15.665 15.665 0 00-8.958-2.805v1c2.94 0 5.876.878 8.386 2.626l.572-.82zM26.809 38.3V26.978h-1v11.321h1zm-.188-10.93l15.176-12.14-.624-.781-15.176 12.138.624.78zm14.552-12.14l15.175 12.138.625-.781L41.797 14.45l-.624.78zM56.16 26.978v18.275h1V26.978h-1zm0 18.275v2.517h1v-2.517h-1zm.134 2.176l-.292.313.732.682.291-.313-.731-.682zm.551.505c-.886-2.85-3.548-4.927-6.69-4.927v1a6.015 6.015 0 015.736 4.224l.954-.297zm-6.69-4.927H47.99v1h2.168v-1zm-1.667.5V32.67h-1v10.838h1zm0-10.838A2.668 2.668 0 0045.82 30v1c.921 0 1.668.747 1.668 1.668h1zm-5.336 2.168v8.67h1v-8.67h-1zm.5 8.17h-4.336v1h4.336v-1zm-3.836.5v-8.67h-1v8.67h1zm-.5-8.17h4.336v-1h-4.336v1zm29.52 11.336L58.428 60.55l.8.6 10.409-13.876-.8-.6zM58.428 60.55c-2.015 2.688-5.112 4.28-8.271 4.28v1c3.493 0 6.879-1.757 9.072-4.68l-.8-.6zm-8.271 4.28h-32.52v1h32.52v-1zm-32.02.5V46.655h-1V65.33h1zm-.17-18.298l1.511-1.33-.66-.75-1.511 1.329.66.75zm1.511-1.33c3.894-3.426 9.769-3.426 13.662 0l.66-.75c-4.27-3.759-10.71-3.759-14.982 0l.66.75zm13.662 0c.752.662 1.105.986 1.442 1.24l.603-.798c-.297-.224-.603-.505-1.385-1.193l-.66.751zm1.442 1.24a2.06 2.06 0 01.09.073c.052.044.122.1.204.166.165.132.382.299.621.464.238.163.508.332.778.461.26.124.57.238.874.238v-1c-.079 0-.226-.036-.442-.14a4.962 4.962 0 01-.643-.383c-.45-.31-.762-.588-.88-.677l-.602.798zm2.567 1.402h13.007v-1H37.149v1zm13.008 0a1.67 1.67 0 011.668 1.667h1a2.67 2.67 0 00-2.668-2.667v1zm1.668 1.667a1.67 1.67 0 01-1.668 1.668v1a2.67 2.67 0 002.668-2.667h-1zm-1.668 1.668H32.812v1h17.345v-1zm-17.344 0a2.668 2.668 0 00-2.668 2.668h1c0-.921.747-1.668 1.668-1.668v-1zm-2.668 2.668a2.668 2.668 0 002.668 2.668v-1a1.668 1.668 0 01-1.668-1.668h-1zm2.668 2.668H51.61v-1H32.813v1zm18.797 0a7.026 7.026 0 005.125-2.23l-.732-.682a6.026 6.026 0 01-4.393 1.912v1zm5.125-2.23l9.544-10.245-.731-.682-9.545 10.245.732.682zm9.544-10.245c.32-.344.752-.532 1.221-.532v-1c-.747 0-1.443.303-1.952.85l.731.682zm1.221-.532c.92 0 1.668.749 1.668 1.668h1a2.67 2.67 0 00-2.668-2.668v1zm1.668 1.668c0 .366-.114.71-.331.998l.8.6a2.644 2.644 0 00.531-1.598h-1z" fill="#113C69" mask="url(#a)"/><mask id="b" maskUnits="userSpaceOnUse" x="32" y="26" width="18" height="18"><path d="M38 44h9.5c.833-1.333 2.5-4.2 2.5-5v-6.5c0-3-1-3-2-3.5s-9-2-10-2.5c-.8-.4-4 2.833-5.5 4.5l-.5 9 3.5 2 2.5 2z" fill="#C4C4C4"/></mask><g mask="url(#b)"><mask id="c" fill="#fff"><path d="M67.5 39.172a6.527 6.527 0 00-4.76 2.071l-1.744 1.872V29.983a6.487 6.487 0 007.246-2.067 6.495 6.495 0 00-1.015-9.14l-6.23-4.983V2.175A2.169 2.169 0 0058.827.01h-8.671c-1.197 0-2.168.97-2.168 2.167v1.212l-2.443-1.954a6.47 6.47 0 00-8.123 0l-21.679 17.34a6.495 6.495 0 00-1.018 9.14c1.81 2.267 4.769 2.951 7.247 2.073v8.944a15.067 15.067 0 00-4.344 2.09 6.512 6.512 0 00-6.496-6.184h-8.96c-1.198 0-2.169.97-2.169 2.167v34.828A2.17 2.17 0 002.172 74h8.961a6.514 6.514 0 006.142-4.368c.118.02.239.033.362.033h32.52c4.683 0 9.222-2.323 12.14-6.215l10.409-13.875a6.45 6.45 0 001.298-3.9 6.511 6.511 0 00-6.504-6.503zM13.301 67.497a2.17 2.17 0 01-2.168 2.168H4.34V39.172h6.793a2.17 2.17 0 012.168 2.168v26.157zM52.325 4.344h4.336v5.98l-4.336-3.468V4.344zM21.158 25.546c-.931.746-2.295.6-3.046-.34a2.163 2.163 0 01.34-3.045L40.13 4.82a2.157 2.157 0 012.708 0l21.68 17.342a2.163 2.163 0 01.337 3.047 2.164 2.164 0 01-3.045.337L42.839 10.372a2.165 2.165 0 00-2.709 0L21.158 25.546zm24.663 4.955h-8.672c-1.197 0-2.168.97-2.168 2.168v8.346a15.165 15.165 0 00-8.672-2.716V26.978L41.485 14.84 56.66 26.978V47.77l-.292.313a6.515 6.515 0 00-6.212-4.576h-2.168V32.67c0-1.197-.97-2.168-2.168-2.168zm-2.168 4.336v8.67h-4.336v-8.67h4.336zm25.584 12.136L58.829 60.85c-2.105 2.805-5.346 4.48-8.672 4.48h-32.52V46.655l1.511-1.33c4.083-3.591 10.24-3.591 14.322 0 .767.675 1.097.978 1.413 1.217.139.105 1.5 1.3 2.266 1.3h13.008a2.17 2.17 0 012.168 2.169 2.17 2.17 0 01-2.168 2.167H32.813a2.168 2.168 0 100 4.336H51.61a6.526 6.526 0 004.759-2.071l9.544-10.245a2.17 2.17 0 013.323 2.775z"/></mask><path d="M67.5 39.172a6.527 6.527 0 00-4.76 2.071l-1.744 1.872V29.983a6.487 6.487 0 007.246-2.067 6.495 6.495 0 00-1.015-9.14l-6.23-4.983V2.175A2.169 2.169 0 0058.827.01h-8.671c-1.197 0-2.168.97-2.168 2.167v1.212l-2.443-1.954a6.47 6.47 0 00-8.123 0l-21.679 17.34a6.495 6.495 0 00-1.018 9.14c1.81 2.267 4.769 2.951 7.247 2.073v8.944a15.067 15.067 0 00-4.344 2.09 6.512 6.512 0 00-6.496-6.184h-8.96c-1.198 0-2.169.97-2.169 2.167v34.828A2.17 2.17 0 002.172 74h8.961a6.514 6.514 0 006.142-4.368c.118.02.239.033.362.033h32.52c4.683 0 9.222-2.323 12.14-6.215l10.409-13.875a6.45 6.45 0 001.298-3.9 6.511 6.511 0 00-6.504-6.503zM13.301 67.497a2.17 2.17 0 01-2.168 2.168H4.34V39.172h6.793a2.17 2.17 0 012.168 2.168v26.157zM52.325 4.344h4.336v5.98l-4.336-3.468V4.344zM21.158 25.546c-.931.746-2.295.6-3.046-.34a2.163 2.163 0 01.34-3.045L40.13 4.82a2.157 2.157 0 012.708 0l21.68 17.342a2.163 2.163 0 01.337 3.047 2.164 2.164 0 01-3.045.337L42.839 10.372a2.165 2.165 0 00-2.709 0L21.158 25.546zm24.663 4.955h-8.672c-1.197 0-2.168.97-2.168 2.168v8.346a15.165 15.165 0 00-8.672-2.716V26.978L41.485 14.84 56.66 26.978V47.77l-.292.313a6.515 6.515 0 00-6.212-4.576h-2.168V32.67c0-1.197-.97-2.168-2.168-2.168zm-2.168 4.336v8.67h-4.336v-8.67h4.336zm25.584 12.136L58.829 60.85c-2.105 2.805-5.346 4.48-8.672 4.48h-32.52V46.655l1.511-1.33c4.083-3.591 10.24-3.591 14.322 0 .767.675 1.097.978 1.413 1.217.139.105 1.5 1.3 2.266 1.3h13.008a2.17 2.17 0 012.168 2.169 2.17 2.17 0 01-2.168 2.167H32.813a2.168 2.168 0 100 4.336H51.61a6.526 6.526 0 004.759-2.071l9.544-10.245a2.17 2.17 0 013.323 2.775z" fill="#0072B5"/><path d="M62.74 41.243l-.438-.409.439.41zm-1.744 1.872h-.6v1.525l1.04-1.115-.44-.41zm0-13.132l.2-.566-.8-.283v.849h.6zm7.246-2.067l-.468-.375.468.375zm-1.015-9.14l-.375.468.375-.468zm-6.23-4.983h-.6v.288l.225.18.374-.468zM47.988 3.388l-.375.468.975.78V3.388h-.6zm-2.443-1.954l.375-.469-.375.469zm-8.123 0l-.375-.468.375.468zm-21.679 17.34l.375.47-.375-.47zm-1.018 9.14l.469-.375-.47.375zm7.247 2.073h.6v-.849l-.8.284.2.565zm0 8.944l.17.575.43-.127v-.448h-.6zm-4.344 2.09l-.6.028.054 1.084.89-.62-.344-.493zm-.354 28.611l.1-.592-.5-.084-.166.478.566.198zm45.022-6.182l-.48-.36.48.36zm10.409-13.875l.48.36-.48-.36zm1.298-3.9h.6-.6zM13.301 67.497h-.6.6zm-8.96 2.168h-.6v.6h.6v-.6zm0-30.493v-.6h-.6v.6h.6zm8.96 2.168h.6-.6zM52.325 4.344v-.6h-.6v.6h.6zm4.336 0h.6v-.6h-.6v.6zm0 5.98l-.375.469.975.78v-1.249h-.6zm-4.336-3.468h-.6v.288l.225.18.375-.468zm-31.167 18.69l-.375-.468.375.468zm-3.046-.34l.469-.374-.469.374zm.34-3.045l.374.47v-.001l-.374-.469zM40.13 4.82l-.375-.469.375.469zm2.708 0l.374-.469-.374.469zm21.68 17.342l-.374.469.374-.469zm.337 3.047l-.469-.375.469.375zm-3.045.337l.375-.468-.375.468zM42.839 10.372l-.375.468.375-.468zm-2.709 0l.375.468-.375-.468zm-5.149 30.642l-.343.493.943.656v-1.148h-.6zM26.309 38.3h-.6v.6h.6v-.6zm0-11.321l-.375-.469-.225.18v.289h.6zM41.485 14.84l.375-.468-.375-.3-.375.3.375.468zM56.66 26.978h.6v-.288l-.226-.18-.374.468zm0 20.792l.439.409.16-.173v-.236h-.6zm-.292.313l-.573.178.307.987.705-.756-.44-.41zm-8.38-4.576h-.6v.6h.6v-.6zm0-10.838h.6-.6zm-4.336 2.168h.6v-.6h-.6v.6zm0 8.67v.6h.6v-.6h-.6zm-4.336 0h-.6v.6h.6v-.6zm0-8.67v-.6h-.6v.6h.6zm29.92 12.136l-.48-.36.48.36zM58.829 60.85l-.48-.36.48.36zm-41.192 4.48h-.6v.6h.6v-.6zm0-18.674l-.396-.45-.204.179v.271h.6zm1.511-1.33l-.396-.45.396.45zm14.322 0l-.396.451.396-.45zm1.413 1.217l-.361.48.361-.48zm21.486 7.901l.439.409-.44-.409zm9.544-10.245l-.439-.409.44.41zm3.755 1.477h-.6.6zM67.5 38.572a7.126 7.126 0 00-5.198 2.262l.878.818a5.927 5.927 0 014.32-1.88v-1.2zm-5.198 2.262l-1.745 1.872.878.819 1.745-1.873-.878-.818zm-.706 2.281V29.983h-1.2v13.133h1.2zm-.8-12.566a7.087 7.087 0 007.915-2.259l-.938-.748a5.887 5.887 0 01-6.576 1.875l-.4 1.132zm7.914-2.258a7.095 7.095 0 00-1.109-9.984l-.749.938a5.895 5.895 0 01.922 8.296l.936.75zm-1.109-9.984l-6.23-4.983-.75.937 6.23 4.983.75-.937zm-6.005-4.514V2.175h-1.2v11.617h1.2zm0-11.617A2.768 2.768 0 0058.83-.59v1.2c.865 0 1.568.702 1.568 1.567h1.2zM58.83-.59h-8.672v1.2h8.672v-1.2zm-8.672 0a2.768 2.768 0 00-2.768 2.767h1.2c0-.865.702-1.567 1.568-1.567v-1.2zM47.39 2.177v1.212h1.2V2.176h-1.2zm.975.743L45.92.965l-.75.937 2.443 1.954.75-.937zM45.92.965a7.07 7.07 0 00-8.873 0l.75.938a5.87 5.87 0 017.374 0l.749-.938zm-8.873 0L15.37 18.307l.75.937 21.677-17.34-.75-.937zM15.37 18.306a7.095 7.095 0 00-1.113 9.984l.937-.75a5.895 5.895 0 01.925-8.295l-.75-.938zm-1.113 9.983c1.98 2.478 5.21 3.224 7.917 2.265l-.401-1.131a5.904 5.904 0 01-6.578-1.883l-.938.75zm7.116 1.7v8.943h1.2v-8.944h-1.2zm.43 8.367a15.666 15.666 0 00-4.517 2.173l.686.984a14.467 14.467 0 014.171-2.006l-.34-1.15zm-3.575 2.636a7.11 7.11 0 00-7.095-6.754v1.2a5.912 5.912 0 015.897 5.612l1.198-.058zm-7.095-6.754h-8.96v1.2h8.96v-1.2zm-8.96 0a2.768 2.768 0 00-2.769 2.767h1.2c0-.865.702-1.567 1.568-1.567v-1.2zm-2.769 2.767v34.828h1.2V37.004h-1.2zm0 34.828A2.768 2.768 0 002.172 74.6v-1.2a1.568 1.568 0 01-1.568-1.568h-1.2zM2.172 74.6h8.961v-1.2h-8.96v1.2zm8.961 0c3.103 0 5.742-1.998 6.709-4.77l-1.133-.396a5.914 5.914 0 01-5.576 3.966v1.2zm6.042-4.376c.143.024.298.04.462.04v-1.2c-.082 0-.168-.008-.262-.024l-.2 1.183zm.462.04h32.52v-1.2h-32.52v1.2zm32.52 0c4.88 0 9.594-2.418 12.62-6.453l-.96-.72c-2.81 3.746-7.174 5.974-11.66 5.974v1.2zm12.62-6.453l10.409-13.876-.96-.72L61.817 63.09l.96.72zm10.409-13.876a7.05 7.05 0 001.418-4.26h-1.2a5.85 5.85 0 01-1.178 3.54l.96.72zm1.418-4.26a7.111 7.111 0 00-7.104-7.103v1.2a5.911 5.911 0 015.904 5.903h1.2zM12.702 67.497a1.57 1.57 0 01-1.568 1.568v1.2a2.77 2.77 0 002.768-2.768h-1.2zm-1.568 1.568H4.34v1.2h6.793v-1.2zm-6.193.6V39.172h-1.2v30.493h1.2zm-.6-29.893h6.793v-1.2H4.34v1.2zm6.793 0a1.57 1.57 0 011.568 1.568h1.2a2.77 2.77 0 00-2.768-2.768v1.2zm1.568 1.568v26.157h1.2V41.34h-1.2zM52.325 4.944h4.336v-1.2h-4.336v1.2zm3.736-.6v5.98h1.2v-5.98h-1.2zm.974 5.512L52.7 6.387l-.75.937 4.336 3.469.75-.937zm-4.11-3V4.344h-1.2v2.512h1.2zM20.783 25.078a1.565 1.565 0 01-2.202-.246l-.938.749a2.765 2.765 0 003.89.434l-.75-.937zm-2.203-.247a1.562 1.562 0 01.246-2.2l-.749-.939a2.763 2.763 0 00-.433 3.89l.937-.75zm.247-2.201L40.505 5.289l-.75-.938-21.68 17.342.75.937zM40.505 5.289a1.557 1.557 0 011.959 0l.75-.938a2.757 2.757 0 00-3.458 0l.75.938zm1.959 0l21.68 17.342.75-.937L43.214 4.35l-.75.937zM64.145 22.63c.674.538.789 1.52.242 2.203l.937.75a2.763 2.763 0 00-.43-3.89l-.749.937zm.242 2.203a1.564 1.564 0 01-2.201.244l-.75.936a2.764 2.764 0 003.889-.43l-.938-.75zm-2.201.243L43.214 9.903l-.75.937 18.972 15.174.75-.937zM43.214 9.903a2.764 2.764 0 00-1.73-.606v1.2c.348 0 .694.114.98.343l.75-.937zm-1.73-.606c-.61 0-1.223.202-1.728.606l.75.937c.286-.229.632-.343.979-.343v-1.2zm-1.728.606L20.783 25.078l.75.937L40.505 10.84l-.75-.937zm6.065 19.998h-8.672v1.2h8.672v-1.2zm-8.672 0a2.768 2.768 0 00-2.768 2.768h1.2c0-.866.702-1.568 1.568-1.568v-1.2zM34.38 32.67v8.346h1.2V32.67h-1.2zm.943 7.853a15.766 15.766 0 00-9.015-2.823v1.2c2.92 0 5.836.872 8.33 2.608l.685-.985zM26.909 38.3V26.978h-1.2v11.321h1.2zm-.225-10.852L41.86 15.309l-.75-.937-15.176 12.137.75.938zM41.11 15.309l15.176 12.138.75-.937L41.86 14.372l-.75.937zm14.95 11.67v18.275h1.2V26.978h-1.2zm0 18.274v2.517h1.2v-2.517h-1.2zm.162 2.107l-.292.313.878.819.292-.313-.878-.819zm.72.544c-.9-2.89-3.6-4.997-6.785-4.997v1.2a5.915 5.915 0 015.639 4.154l1.146-.357zm-6.785-4.997h-2.168v1.2h2.168v-1.2zm-1.568.6V32.67h-1.2v10.838h1.2zm0-10.838A2.768 2.768 0 0045.82 29.9v1.2c.866 0 1.568.702 1.568 1.568h1.2zm-5.536 2.168v8.67h1.2v-8.67h-1.2zm.6 8.07h-4.336v1.2h4.336v-1.2zm-3.736.6v-8.67h-1.2v8.67h1.2zm-.6-8.07h4.336v-1.2h-4.336v1.2zm29.44 11.176L58.348 60.49l.96.72 10.409-13.876-.96-.72zM58.348 60.49c-1.998 2.664-5.066 4.24-8.191 4.24v1.2c3.526 0 6.941-1.773 9.152-4.72l-.96-.72zm-8.191 4.24h-32.52v1.2h32.52v-1.2zm-31.92.6V46.655h-1.2V65.33h1.2zm-.203-18.223l1.51-1.33-.792-.9-1.511 1.329.793.9zm1.51-1.33c3.856-3.393 9.674-3.393 13.53 0l.793-.9c-4.31-3.792-10.806-3.792-15.115 0l.792.9zm13.53 0c.75.66 1.107.988 1.448 1.245l.723-.957c-.293-.222-.594-.499-1.378-1.189l-.793.901zm1.448 1.245l.022.018.064.053.206.167c.165.132.384.3.627.467.24.165.515.337.791.47.263.126.59.247.917.247v-1.2c-.056 0-.187-.028-.399-.13a4.857 4.857 0 01-.63-.376c-.448-.309-.748-.578-.875-.674l-.723.958zm2.627 1.422h13.007v-1.2H37.149v1.2zm13.008 0a1.57 1.57 0 011.568 1.568h1.2a2.77 2.77 0 00-2.768-2.768v1.2zm1.568 1.568a1.57 1.57 0 01-1.568 1.567v1.2a2.77 2.77 0 002.768-2.767h-1.2zm-1.568 1.567H32.812v1.2h17.345v-1.2zm-17.344 0a2.768 2.768 0 00-2.768 2.768h1.2c0-.866.702-1.568 1.568-1.568v-1.2zm-2.768 2.768a2.768 2.768 0 002.768 2.768v-1.2a1.568 1.568 0 01-1.568-1.568h-1.2zm2.768 2.768H51.61v-1.2H32.813v1.2zm18.797 0a7.126 7.126 0 005.198-2.262l-.878-.818a5.925 5.925 0 01-4.32 1.88v1.2zm5.198-2.262l9.544-10.245-.878-.818-9.544 10.245.878.818zm9.544-10.245c.302-.324.707-.5 1.148-.5v-1.2a2.75 2.75 0 00-2.026.882l.878.818zm1.148-.5a1.57 1.57 0 011.568 1.568h1.2a2.77 2.77 0 00-2.768-2.768v1.2zm1.568 1.568c0 .344-.107.667-.311.938l.96.72c.36-.48.552-1.056.551-1.658h-1.2z" fill="#113C69" mask="url(#c)"/></g></svg>