<svg width="91" height="94" fill="none" xmlns="http://www.w3.org/2000/svg"><path d="M7.188 79.375h5.25c.725 0 1.312-.588 1.312-1.313v-9.187h31.5v9.188c0 .724.587 1.312 1.313 1.312h31.5c.725 0 1.312-.588 1.312-1.313V58.376a1.31 1.31 0 00-.385-.928l-2.24-2.24V1.936c0-.724-.587-1.312-1.313-1.312H7.188A6.57 6.57 0 00.625 7.188v65.624a6.57 6.57 0 006.563 6.563zm52.5-2.625V63.625h5.25V76.75h-5.25zm17.062 0h-9.188V62.312c0-.724-.587-1.312-1.312-1.312h-7.875c-.725 0-1.313.588-1.313 1.313V76.75h-9.187V58.919L62.313 44.48l5.634 5.634a1.31 1.31 0 002.24-.928V45.25h3.938v10.5c0 .348.138.682.385.928l2.24 2.24V76.75zM7.187 3.25h66.938v39.375h-5.25c-.725 0-1.313.588-1.313 1.313v2.081l-4.322-4.322a1.312 1.312 0 00-1.855 0l-15.75 15.75a1.31 1.31 0 00-.385.928v7.875h-31.5V12.437c0-.724-.587-1.312-1.313-1.312h-5.25A3.942 3.942 0 013.25 7.187 3.942 3.942 0 017.188 3.25zM3.25 12.434a6.529 6.529 0 003.938 1.316h3.937v63H7.187a3.942 3.942 0 01-3.937-3.938V12.434z" fill="#fff"/><path d="M19 54.438h7.875c.726 0 1.313-.588 1.313-1.313a3.944 3.944 0 012.625-3.713v3.713c0 .725.587 1.313 1.312 1.313h9.188c.725 0 1.312-.588 1.312-1.313V36.062h26.25c.725 0 1.313-.587 1.313-1.312V8.5c0-.725-.588-1.313-1.313-1.313H19c-.726 0-1.313.588-1.313 1.313v44.625c0 .725.587 1.313 1.313 1.313zm48.563-21h-15.75v-2.626h3.937c.725 0 1.313-.587 1.313-1.312 0-3.17-2.259-5.821-5.25-6.43V9.812h15.75v23.626zM34.75 9.811v13.126h-1.313v2.625h2.626c.725 0 1.312-.588 1.312-1.313V9.812h11.813V24.25c0 .725.587 1.313 1.312 1.313a3.946 3.946 0 013.713 2.625H50.5c-.725 0-1.313.587-1.313 1.312v3.938h-7.874c-.726 0-1.313.587-1.313 1.312v17.063h-6.563v-3.938c0-.725-.587-1.313-1.312-1.313-3.17 0-5.82 2.259-6.43 5.25h-5.383v-26.25H29.5v-2.625h-9.188V9.813H34.75zM16.375 61H19v2.625h-2.625V61zm5.25 0h2.625v2.625h-2.625V61zm5.25 0H29.5v2.625h-2.625V61z" fill="#fff"/><mask id="a" maskUnits="userSpaceOnUse" x="45" y="39" width="46" height="55"><path d="M77 42.5h-3l-4-3h-9.5c-.4 0-10.5 9.333-15.5 14V81c2.667 3.833 9.1 11.6 13.5 12 5.5.5 22-7 29.5-9.5 6-2-.5-11.167-4.5-15.5L77 42.5z" fill="#C4C4C4"/></mask><g mask="url(#a)" fill="#0072B5"><path d="M7.188 79.375h5.25c.725 0 1.312-.588 1.312-1.313v-9.187h31.5v9.188c0 .724.587 1.312 1.313 1.312h31.5c.725 0 1.312-.588 1.312-1.313V58.376a1.31 1.31 0 00-.385-.928l-2.24-2.24V1.936c0-.724-.587-1.312-1.313-1.312H7.188A6.57 6.57 0 00.625 7.188v65.624a6.57 6.57 0 006.563 6.563zm52.5-2.625V63.625h5.25V76.75h-5.25zm17.062 0h-9.188V62.312c0-.724-.587-1.312-1.312-1.312h-7.875c-.725 0-1.313.588-1.313 1.313V76.75h-9.187V58.919L62.313 44.48l5.634 5.634a1.31 1.31 0 002.24-.928V45.25h3.938v10.5c0 .348.138.682.385.928l2.24 2.24V76.75zM7.187 3.25h66.938v39.375h-5.25c-.725 0-1.313.588-1.313 1.313v2.081l-4.322-4.322a1.312 1.312 0 00-1.855 0l-15.75 15.75a1.31 1.31 0 00-.385.928v7.875h-31.5V12.437c0-.724-.587-1.312-1.313-1.312h-5.25A3.942 3.942 0 013.25 7.187 3.942 3.942 0 017.188 3.25zM3.25 12.434a6.529 6.529 0 003.938 1.316h3.937v63H7.187a3.942 3.942 0 01-3.937-3.938V12.434z"/><path d="M19 54.438h7.875c.726 0 1.313-.588 1.313-1.313a3.944 3.944 0 012.625-3.713v3.713c0 .725.587 1.313 1.312 1.313h9.188c.725 0 1.312-.588 1.312-1.313V36.062h26.25c.725 0 1.313-.587 1.313-1.312V8.5c0-.725-.588-1.313-1.313-1.313H19c-.726 0-1.313.588-1.313 1.313v44.625c0 .725.587 1.313 1.313 1.313zm48.563-21h-15.75v-2.626h3.937c.725 0 1.313-.587 1.313-1.312 0-3.17-2.259-5.821-5.25-6.43V9.812h15.75v23.626zM34.75 9.811v13.126h-1.313v2.625h2.626c.725 0 1.312-.588 1.312-1.313V9.812h11.813V24.25c0 .725.587 1.313 1.312 1.313a3.946 3.946 0 013.713 2.625H50.5c-.725 0-1.313.587-1.313 1.312v3.938h-7.874c-.726 0-1.313.587-1.313 1.312v17.063h-6.563v-3.938c0-.725-.587-1.313-1.312-1.313-3.17 0-5.82 2.259-6.43 5.25h-5.383v-26.25H29.5v-2.625h-9.188V9.813H34.75zM16.375 61H19v2.625h-2.625V61zm5.25 0h2.625v2.625h-2.625V61zm5.25 0H29.5v2.625h-2.625V61z"/></g></svg>