<svg width="66" height="78" fill="none" xmlns="http://www.w3.org/2000/svg"><path d="M6.191 41.428H28.13c.674 0 1.218-.545 1.218-1.219v-4.875c0-.674-.544-1.219-1.218-1.219H6.19c-.674 0-1.219.545-1.219 1.219v4.875c0 .674.545 1.219 1.22 1.219zm1.219-4.875h19.5v2.437H7.41v-2.437zm18.281 7.312a3.66 3.66 0 00-3.656 3.657 3.66 3.66 0 003.656 3.656 3.66 3.66 0 003.656-3.656 3.66 3.66 0 00-3.656-3.657zm0 4.875a1.22 1.22 0 11.001-2.438 1.22 1.22 0 010 2.438zm-8.531-4.875a3.66 3.66 0 00-3.656 3.657 3.66 3.66 0 003.656 3.656 3.66 3.66 0 003.656-3.656 3.66 3.66 0 00-3.656-3.657zm0 4.875a1.22 1.22 0 110-2.438 1.22 1.22 0 010 2.438zm-8.531 2.438a3.66 3.66 0 003.656-3.656 3.66 3.66 0 00-3.656-3.657 3.66 3.66 0 00-3.657 3.657 3.66 3.66 0 003.657 3.656zm0-4.875a1.22 1.22 0 11-.001 2.438 1.22 1.22 0 010-2.438zm17.062 6.094a3.66 3.66 0 00-3.656 3.656 3.66 3.66 0 003.656 3.656 3.66 3.66 0 003.656-3.656 3.66 3.66 0 00-3.656-3.656zm0 4.875a1.22 1.22 0 11.001-2.439 1.22 1.22 0 010 2.439zm-8.531-4.875a3.66 3.66 0 00-3.656 3.656 3.66 3.66 0 003.656 3.656 3.66 3.66 0 003.656-3.656 3.66 3.66 0 00-3.656-3.656zm0 4.875a1.22 1.22 0 110-2.439 1.22 1.22 0 010 2.439zm-8.531 2.437a3.66 3.66 0 003.656-3.656 3.66 3.66 0 00-3.656-3.656 3.66 3.66 0 00-3.657 3.656 3.66 3.66 0 003.657 3.656zm0-4.875a1.22 1.22 0 11-.001 2.438 1.22 1.22 0 010-2.438zm17.062 6.094a3.66 3.66 0 00-3.656 3.656 3.66 3.66 0 003.656 3.656 3.66 3.66 0 003.656-3.656 3.66 3.66 0 00-3.656-3.656zm0 4.875a1.22 1.22 0 11.001-2.439 1.22 1.22 0 010 2.439zm-8.531-4.875a3.66 3.66 0 00-3.656 3.656 3.66 3.66 0 003.656 3.656 3.66 3.66 0 003.656-3.656 3.66 3.66 0 00-3.656-3.656zm0 4.875a1.22 1.22 0 110-2.439 1.22 1.22 0 010 2.439zM8.629 68.24a3.66 3.66 0 003.656-3.656 3.66 3.66 0 00-3.656-3.656 3.66 3.66 0 00-3.657 3.656A3.66 3.66 0 008.63 68.24zm0-4.875a1.22 1.22 0 11-.001 2.439 1.22 1.22 0 010-2.439z" fill="#0072B5"/><path d="M45.173 18.296h-.092a9.793 9.793 0 00-4.783-7.197v-.513c0-.062-.026-.117-.035-.177-.014-.089-.021-.178-.053-.262-.03-.077-.078-.139-.123-.208-.04-.064-.073-.128-.126-.183-.066-.072-.148-.12-.23-.174-.045-.03-.078-.073-.128-.097l-.036-.015-.028-.011a9.797 9.797 0 00-8.233-.004l-.018.007-.04.016c-.055.026-.092.074-.142.107-.077.052-.155.097-.218.162-.053.058-.085.125-.127.188-.044.068-.092.13-.123.206-.032.083-.038.172-.052.26-.01.062-.036.117-.036.179v.514a9.797 9.797 0 00-4.793 7.2h-.084c-.674 0-1.219.545-1.219 1.22v3.656c0 .673.545 1.218 1.219 1.218h19.5c.674 0 1.219-.545 1.219-1.218v-3.657c0-.672-.545-1.217-1.22-1.217zM30.55 14.064v.573a1.218 1.218 0 102.438 0V11.4a7.36 7.36 0 014.872.002v3.235a1.218 1.218 0 102.438 0v-.565a7.37 7.37 0 012.32 4.224H28.22a7.378 7.378 0 012.33-4.232zm13.404 7.888H26.892v-1.219h17.062v1.219zm8.544 12.18h3.656a1.218 1.218 0 100-2.437h-3.656a1.218 1.218 0 100 2.437zm3.656 3.657h-4.877a1.218 1.218 0 100 2.437h4.877a1.218 1.218 0 100-2.437zm0 6.093h-3.656a1.218 1.218 0 100 2.438h3.656a1.218 1.218 0 100-2.438zm0 6.094h-2.436a1.218 1.218 0 100 2.438h2.436a1.218 1.218 0 100-2.438zm0 6.094h-3.656a1.218 1.218 0 100 2.437h3.656a1.218 1.218 0 100-2.437zm0 6.093h-4.877a1.218 1.218 0 100 2.438h4.877a1.218 1.218 0 100-2.438z" fill="#fff"/><path d="M65.9 9.752a1.216 1.216 0 00-.356-.85L57.017.368a1.207 1.207 0 00-.398-.264 1.208 1.208 0 00-.465-.094H17.16c-.674 0-1.219.545-1.219 1.219V29.24H3.754a3.66 3.66 0 00-3.657 3.657v41.437a3.66 3.66 0 003.657 3.656h26.812a3.66 3.66 0 003.656-3.656V73.11h30.462c.674 0 1.219-.544 1.219-1.218V9.765c0-.005-.003-.009-.003-.013zm-8.527-5.58l4.37 4.374h-4.37V4.172zM2.535 32.897a1.22 1.22 0 011.219-1.22h26.812a1.22 1.22 0 011.219 1.22v36.562a1.22 1.22 0 01-1.219 1.219H3.754a1.22 1.22 0 01-1.22-1.219V32.897zm28.031 42.656H3.754a1.22 1.22 0 01-1.22-1.219V72.89a3.61 3.61 0 001.22.225h26.812c.43 0 .836-.087 1.219-.225v1.444a1.22 1.22 0 01-1.219 1.219zm3.656-6.094v-4.858h10.96a1.218 1.218 0 100-2.437h-10.96v-3.657h10.96a1.218 1.218 0 100-2.437h-10.96v-3.656h10.96a1.218 1.218 0 100-2.438h-10.96V46.32h10.96a1.218 1.218 0 100-2.438h-10.96v-3.656h10.96a1.218 1.218 0 100-2.437h-10.96v-3.657h10.96a1.218 1.218 0 100-2.437h-11.18c-.5-1.425-1.845-2.455-3.437-2.455H18.38V2.447h36.556v7.318c0 .674.545 1.218 1.219 1.218h7.311v59.691H34.222V69.46z" fill="#fff"/></svg>