<svg width="52" height="59" fill="none" xmlns="http://www.w3.org/2000/svg"><mask id="a" maskUnits="userSpaceOnUse" x="8" y="27" width="36" height="32"><path d="M8.5 48v6c3 1.5 10 4.5 14 4.5 5 0 13-.5 17.5-1s3.5-2 3.5-4V38c0-1-1-3-1.5-4.5s-3-3.5-4.5-5-4.5-.5-6.5-1-12.5 0-13.5 0c-.8 0-4 .667-5.5 1l-3.5 6V48z" fill="#C4C4C4"/></mask><g mask="url(#a)" fill="#fff"><path d="M1.562 10.379l24.166-8.333a.833.833 0 01.544 0l24.166 8.333a.833.833 0 01.562.787v40c0 .46-.373.834-.833.834H46a.833.833 0 01-.833-.833V25.333H6.833v25.834c0 .46-.373.833-.833.833H1.833A.833.833 0 011 51.167v-40c0-.356.226-.672.562-.788zm45.271 39.954h2.5V18.667h-2.5v31.666zm-40-26.666h38.334V22H6.833v1.666zm0-3.334h38.334v-1.666H6.833v1.666zm-4.166 30h2.5V18.667h-2.5v31.666zm0-33.333h46.666v-5.24L26 3.716 2.667 11.76V17z"/><path d="M9.794 37.916l3.083-1.541 2.75-5.5a2.487 2.487 0 012.236-1.375h16.274a2.486 2.486 0 012.236 1.381l2.75 5.5 3.083 1.542a.83.83 0 01.46.743v11.667c0 .92-.745 1.667-1.666 1.667h-3.333c-.92 0-1.667-.746-1.667-1.667v-2.5H16v2.5c0 .92-.746 1.667-1.667 1.667H11c-.92 0-1.667-.746-1.667-1.667V38.666a.833.833 0 01.461-.75zm25.088-6.289a.828.828 0 00-.745-.46H17.863a.828.828 0 00-.745.46l-2.27 4.54h22.304l-2.27-4.54zm2.785 18.706H41v-2.5h-3.333v2.5zm-26.667 0h3.333v-2.5H11v2.5zm0-4.167h30v-6.985l-2.697-1.348H13.697L11 39.18v6.985z"/><path d="M35.167 39.5h2.5c.92 0 1.666.746 1.666 1.666v1.667c0 .92-.746 1.666-1.666 1.666h-2.5c-.92 0-1.667-.746-1.667-1.666v-1.667c0-.92.746-1.666 1.667-1.666zm0 3.333h2.5v-1.667h-2.5v1.667zM14.333 39.5h2.5c.92 0 1.667.746 1.667 1.666v1.667c0 .92-.746 1.666-1.667 1.666h-2.5c-.92 0-1.666-.746-1.666-1.666v-1.667c0-.92.746-1.666 1.666-1.666zm0 3.333h2.5v-1.667h-2.5v1.667zm7.5-3.333h8.334c.92 0 1.666.746 1.666 1.666v1.667c0 .92-.746 1.666-1.666 1.666h-8.334c-.92 0-1.666-.746-1.666-1.666v-1.667c0-.92.746-1.666 1.666-1.666zm0 3.333h8.334v-1.667h-8.334v1.667z"/></g><path d="M50.375 7.313c.45 0 .813-.364.813-.813V1.625a.812.812 0 00-.813-.813H1.625a.812.812 0 00-.813.813V6.5c0 .449.364.813.813.813h.813v42.25H.812v1.624h50.376v-1.624h-1.626V7.313h.813zM2.437 2.438h47.126v3.25H2.437v-3.25zm21.125 4.874v1.625H8.938v1.626h34.126V8.937H28.437V7.313h16.25v42.25H7.313V7.313h16.25zm1.625 1.625V7.313h1.625v1.625h-1.625zM4.063 7.313h1.625v42.25H4.063V7.313zm43.876 42.25h-1.626V7.313h1.626v42.25z" fill="#fff"/><path d="M26 26.188a4.067 4.067 0 004.063-4.063 4.702 4.702 0 00-1.387-3.348 6.318 6.318 0 01-1.863-4.498V14a.812.812 0 10-1.625 0v.279a6.32 6.32 0 01-1.864 4.498 4.702 4.702 0 00-1.387 3.348A4.067 4.067 0 0026 26.188zm-1.527-6.262A7.987 7.987 0 0026 17.798a8.001 8.001 0 001.527 2.128 3.09 3.09 0 01.91 2.199A2.44 2.44 0 0126 24.563a2.44 2.44 0 01-2.438-2.438c0-.83.324-1.612.911-2.2zm12.902 6.262a4.067 4.067 0 004.063-4.063 4.702 4.702 0 00-1.387-3.348 6.318 6.318 0 01-1.864-4.498V14a.812.812 0 10-1.624 0v.279a6.32 6.32 0 01-1.864 4.498 4.702 4.702 0 00-1.386 3.348 4.067 4.067 0 004.062 4.063zm-1.527-6.262a7.987 7.987 0 001.527-2.128 8.001 8.001 0 001.527 2.128 3.09 3.09 0 01.91 2.199 2.44 2.44 0 01-2.437 2.438 2.44 2.44 0 01-2.438-2.438c0-.83.324-1.612.911-2.2zm-21.223 6.262a4.067 4.067 0 004.063-4.063 4.702 4.702 0 00-1.387-3.348 6.318 6.318 0 01-1.863-4.498V14a.812.812 0 10-1.626 0v.279a6.32 6.32 0 01-1.863 4.498 4.702 4.702 0 00-1.386 3.348 4.067 4.067 0 004.062 4.063zm-1.527-6.262a7.987 7.987 0 001.527-2.128 8.001 8.001 0 001.527 2.128 3.09 3.09 0 01.91 2.199 2.44 2.44 0 01-2.437 2.438 2.44 2.44 0 01-2.438-2.438c0-.83.324-1.612.911-2.2z" fill="#fff"/></svg>