<svg width="51" height="46" fill="none" xmlns="http://www.w3.org/2000/svg"><path d="M50.33 12.813L26.03.13a1.137 1.137 0 00-1.06 0L.67 12.812c-.41.215-.67.657-.67 1.142v29.605C0 44.905 1.032 46 2.301 46H48.7c1.268 0 2.3-1.095 2.3-2.44V13.952c0-.484-.26-.926-.67-1.14zm-10.183 16.88H10.853v-4.37h29.294v4.37zm-29.294 2.542h29.294v4.369H10.853v-4.369zm29.294-9.454H10.853v-4.534h29.294v4.534zM10.853 39.147h29.294v4.31H10.853v-4.31zm37.75 4.31h-6.059V16.975c0-.702-.536-1.272-1.199-1.272H9.655c-.662 0-1.2.57-1.2 1.272v26.482H2.399V14.745L25.5 2.689l23.102 12.056v28.712z" fill="#fff"/></svg>