<svg width="50" height="50" fill="none" xmlns="http://www.w3.org/2000/svg"><path d="M.562 8.379L24.728.046a.833.833 0 01.544 0l24.166 8.333a.833.833 0 01.562.787v40c0 .46-.373.834-.833.834H45a.833.833 0 01-.833-.833V23.333H5.833v25.834c0 .46-.373.833-.833.833H.833A.833.833 0 010 49.167v-40c0-.356.226-.672.562-.788zm45.271 39.954h2.5V16.667h-2.5v31.666zm-40-26.666h38.334V20H5.833v1.666zm0-3.334h38.334v-1.666H5.833v1.666zm-4.166 30h2.5V16.667h-2.5v31.666zm0-33.333h46.666V9.76L25 1.716 1.667 9.76V15z" fill="#fff"/><path d="M8.794 35.916l3.083-1.541 2.75-5.5a2.487 2.487 0 012.236-1.375h16.274a2.486 2.486 0 012.236 1.381l2.75 5.5 3.083 1.542a.83.83 0 01.46.743v11.667c0 .92-.745 1.667-1.666 1.667h-3.333c-.92 0-1.667-.746-1.667-1.667v-2.5H15v2.5c0 .92-.746 1.667-1.667 1.667H10c-.92 0-1.667-.746-1.667-1.667V36.666a.833.833 0 01.461-.75zm25.088-6.289a.828.828 0 00-.745-.46H16.863a.828.828 0 00-.745.46l-2.27 4.54h22.304l-2.27-4.54zm2.785 18.706H40v-2.5h-3.333v2.5zm-26.667 0h3.333v-2.5H10v2.5zm0-4.167h30v-6.985l-2.697-1.348H12.697L10 37.18v6.985z" fill="#fff"/><path d="M34.167 37.5h2.5c.92 0 1.666.746 1.666 1.666v1.667c0 .92-.746 1.666-1.666 1.666h-2.5c-.92 0-1.667-.746-1.667-1.666v-1.667c0-.92.746-1.666 1.667-1.666zm0 3.333h2.5v-1.667h-2.5v1.667zM13.333 37.5h2.5c.92 0 1.667.746 1.667 1.666v1.667c0 .92-.746 1.666-1.667 1.666h-2.5c-.92 0-1.666-.746-1.666-1.666v-1.667c0-.92.746-1.666 1.666-1.666zm0 3.333h2.5v-1.667h-2.5v1.667zm7.5-3.333h8.334c.92 0 1.666.746 1.666 1.666v1.667c0 .92-.746 1.666-1.666 1.666h-8.334c-.92 0-1.666-.746-1.666-1.666v-1.667c0-.92.746-1.666 1.666-1.666zm0 3.333h8.334v-1.667h-8.334v1.667z" fill="#fff"/></svg>