<svg width="57" height="55" fill="none" xmlns="http://www.w3.org/2000/svg"><path d="M53.437 46.993l.002-.118a3.754 3.754 0 00-3.75-3.75V25.781l3.375-2.531a.938.938 0 00-.01-1.507l-8.052-5.885V5.625a.937.937 0 00.937-.938V.938A.938.938 0 0045.002 0h-9.375a.938.938 0 00-.938.938v3.75a.938.938 0 00.938.937v3.382L28.68 3.931a.937.937 0 00-1.107 0L3.198 21.743a.936.936 0 00-.009 1.507l3.375 2.531v17.344a3.754 3.754 0 00-3.748 3.868 3.75 3.75 0 00.936 7.382h48.75a3.75 3.75 0 00.935-7.382zM36.564 1.875h7.5V3.75h-7.5V1.875zm.938 8.438V5.625h5.625v8.863l-5.714-4.175h.089zm-9.375-4.464l22.799 16.66-2.183 1.638L28.678 9.554a.938.938 0 00-1.103 0L7.51 24.147 5.327 22.51l22.8-16.661zM1.877 50.625a1.877 1.877 0 011.846-1.875h.003c.048.007.096.012.144.016a.937.937 0 00.94-1.256 1.843 1.843 0 01-.12-.635A1.877 1.877 0 016.563 45v7.5H3.752a1.877 1.877 0 01-1.875-1.875zM42.189 52.5H30.94V31.875h11.25V52.5zm1.875 0V30.937a.938.938 0 00-.937-.937H30.002a.938.938 0 00-.938.938V52.5H8.44V25.79l19.688-14.318L47.814 25.79V52.5h-3.75zm8.438 0h-2.813V45a1.877 1.877 0 011.875 1.875 1.843 1.843 0 01-.121.635.937.937 0 00.94 1.256c.049-.003.097-.009.145-.015h.002a1.875 1.875 0 11-.028 3.749z" fill="#fff"/><path d="M24.377 30h-11.25a.938.938 0 00-.938.938v13.125a.938.938 0 00.938.937h11.25a.937.937 0 00.937-.938V30.938a.938.938 0 00-.937-.938zm-.938 6.563h-3.75v-4.688h3.75v4.688zm-5.625-4.688v4.688h-3.75v-4.688h3.75zm-3.75 6.563h3.75v4.687h-3.75v-4.688zm5.625 4.687v-4.688h3.75v4.688h-3.75zm14.929-1.516a.937.937 0 10-1.732-.718.937.937 0 001.732.718z" fill="#fff"/></svg>