<svg width="51" height="46" fill="none" xmlns="http://www.w3.org/2000/svg"><path d="M50.04 44.104h-5.088V12.722a.848.848 0 00-.848-.848H29.685V.848A.848.848 0 0028.837 0H6.785a.848.848 0 00-.848.848v43.256H.848a.848.848 0 000 1.696h49.193a.848.848 0 000-1.696zm-22.051 0H7.633V1.696H27.99v42.408zm15.267 0h-13.57V13.57h13.57v30.534z" fill="#fff"/><path d="M33.926 22.847h5.089c.468 0 .848-.38.848-.848V16.91a.848.848 0 00-.848-.848h-5.09a.848.848 0 00-.847.848v5.089c0 .468.38.848.848.848zm.848-5.089h3.393v3.393h-3.393v-3.393zm-.848 13.57h5.089c.468 0 .848-.38.848-.848v-5.088a.848.848 0 00-.848-.849h-5.09a.848.848 0 00-.847.849v5.088c0 .469.38.848.848.848zm.848-5.088h3.393v3.392h-3.393V26.24zm-.848 13.57h5.089c.468 0 .848-.38.848-.848v-5.09a.848.848 0 00-.848-.847h-5.09a.848.848 0 00-.847.848v5.089c0 .468.38.848.848.848zm.848-5.089h3.393v3.393h-3.393V34.72zM19.507 22.847h5.09c.468 0 .847-.38.847-.848V16.91a.848.848 0 00-.848-.848h-5.089a.848.848 0 00-.848.848v5.089c0 .468.38.848.848.848zm.848-5.089h3.393v3.393h-3.393v-3.393zm-.848-3.392h5.09c.468 0 .847-.38.847-.849V8.428a.848.848 0 00-.848-.848h-5.089a.848.848 0 00-.848.848v5.09c0 .468.38.848.848.848zm.848-5.09h3.393v3.393h-3.393V9.277zm-.848 22.052h5.09c.468 0 .847-.38.847-.848v-5.088a.848.848 0 00-.848-.849h-5.089a.848.848 0 00-.848.849v5.088c0 .469.38.848.848.848zm.848-5.088h3.393v3.392h-3.393V26.24zm-.848 13.57h5.09c.468 0 .847-.38.847-.848v-5.09a.848.848 0 00-.848-.847h-5.089a.848.848 0 00-.848.848v5.089c0 .468.38.848.848.848zm.848-5.089h3.393v3.393h-3.393V34.72zm-9.329-11.874h5.089c.468 0 .848-.38.848-.848V16.91a.848.848 0 00-.848-.848h-5.09a.848.848 0 00-.847.848v5.089c0 .468.38.848.848.848zm.848-5.089h3.393v3.393h-3.393v-3.393zm-.848-3.392h5.089c.468 0 .848-.38.848-.849V8.428a.848.848 0 00-.848-.848h-5.09a.848.848 0 00-.847.848v5.09c0 .468.38.848.848.848zm.848-5.09h3.393v3.393h-3.393V9.277zm-.848 22.052h5.089c.468 0 .848-.38.848-.848v-5.088a.848.848 0 00-.848-.849h-5.09a.848.848 0 00-.847.849v5.088c0 .469.38.848.848.848zm.848-5.088h3.393v3.392h-3.393V26.24zm-.848 13.57h5.089c.468 0 .848-.38.848-.848v-5.09a.848.848 0 00-.848-.847h-5.09a.848.848 0 00-.847.848v5.089c0 .468.38.848.848.848zm.848-5.089h3.393v3.393h-3.393V34.72z" fill="#fff"/></svg>