<svg width="10" height="10" fill="none" xmlns="http://www.w3.org/2000/svg"><path d="M9.743 7.376L8.5 6.133a.88.88 0 00-1.243 0l-.565.565a.667.667 0 01-.942 0L3.301 4.246a.666.666 0 010-.941l.565-.565a.879.879 0 000-1.244L2.623.257a.88.88 0 00-1.242 0L.928.704a3.173 3.173 0 000 4.483l3.88 3.883a3.168 3.168 0 004.483 0l.452-.452a.88.88 0 000-1.243zM1.794.672a.293.293 0 01.415 0L3.452 1.91c.114.114.114.3 0 .414l-.207.207L1.588.876l.206-.204zm3.429 7.985l-3.88-3.883a2.576 2.576 0 01-.162-3.477l1.651 1.652a1.25 1.25 0 00.055 1.712l2.449 2.45c.47.47 1.22.49 1.712.055L8.7 8.818a2.571 2.571 0 01-3.477-.161zm4.106-.453l-.207.208-1.658-1.658.208-.207a.293.293 0 01.414 0L9.329 7.79c.114.114.114.3 0 .414z" fill="#000"/></svg>