<svg width="56" height="48" fill="none" xmlns="http://www.w3.org/2000/svg"><path d="M48.602 3.567H7.398c-.493 0-.893.4-.893.894v5.681c0 .494.4.894.893.894h41.204c.494 0 .893-.4.893-.894V4.461c0-.494-.4-.894-.893-.894zm-.894 5.682H8.292V5.355h39.416v3.894z" fill="#fff"/><path d="M55.943 21.274l-3.16-8.426V1.594c0-.494-.4-.894-.893-.894H4.11c-.494 0-.894.4-.894.894v11.253L.057 21.274a.893.893 0 00.837 1.207h2.322v23.032H1.91a.893.893 0 100 1.787h52.183a.893.893 0 100-1.787h-1.308V22.48h2.322a.893.893 0 00.837-1.207zM5.003 2.487h45.993v9.629H5.005V2.487zm5.926 11.416l-1.698 6.79H6.627l2.122-6.79h2.18zm1.842 0h2.207l-1.273 6.79h-2.632l1.698-6.79zm4.026 0h2.227l-.848 6.79h-2.653l1.274-6.79zm4.029 0h2.241l-.424 6.79h-2.666l.849-6.79zm4.032 0h2.248v6.79h-2.673l.425-6.79zm4.035 0h2.25l.424 6.79h-2.674v-6.79zm4.464 6.79l-.424-6.79h2.241l.85 6.79h-2.667zm4.467 0l-.848-6.79h2.227l1.274 6.79h-2.653zm4.47 0l-1.272-6.79h2.207l1.697 6.79h-2.631zm4.475 0l-1.698-6.79h2.18l2.122 6.79H46.77zm-42.04-6.79h2.147l-2.122 6.79H2.183l2.546-6.79zm33.73 20.884h6.318v6.258H38.46v-6.258zm0 8.045h6.318v2.68H38.46v-2.68zm-1.865-12.346l.992-3.109h8.065l.991 3.11H36.594zm8.183 1.787V33H38.46v-.727h6.317zm6.22 13.24h-4.433v-13.24h1.301a.894.894 0 00.852-1.165l-1.562-4.896a.894.894 0 00-.852-.622h-9.37a.894.894 0 00-.851.622l-1.562 4.896a.893.893 0 00.851 1.165h1.302v13.24H5.003V22.48h45.993v23.032zm.249-24.82l-2.122-6.79h2.147l2.546 6.79h-2.571z" fill="#fff"/><path d="M7.94 32.273h1.075v9.406c0 .493.4.893.893.893h19.416c.494 0 .894-.4.894-.893v-9.406h1.074a.894.894 0 00.852-1.165l-1.562-4.896a.894.894 0 00-.851-.622H9.502a.894.894 0 00-.851.622l-1.562 4.896a.894.894 0 00.851 1.165zm20.49 8.512H10.803v-8.512H28.43v8.512zM10.156 27.377h18.923l.991 3.11H9.163l.992-3.11z" fill="#fff"/></svg>