<svg width="56" height="56" fill="none" xmlns="http://www.w3.org/2000/svg"><path d="M1.858 49.388H4.47V18.013a.793.793 0 01.333-.647L27.541 1.211a.794.794 0 01.918 0l22.737 16.155a.793.793 0 01.333.647v31.375h2.613a.792.792 0 01.793.793v3.96a.793.793 0 01-.793.792H1.858a.792.792 0 01-.793-.793v-3.96a.793.793 0 01.793-.792zm48.085-30.966L28 2.831 6.057 18.422v30.966H9.4v-26.41a.793.793 0 01.793-.793h35.614a.793.793 0 01.793.793v26.41h3.343V18.422zM16.932 49.388v-9.481a.793.793 0 01.793-.793h4.345V29.63a.793.793 0 01.793-.793h10.275a.793.793 0 01.793.793v9.483h4.344a.793.793 0 01.793.793v9.48h5.945V23.77H10.987v25.618h5.945zm20.55 0v-5.536h-8.689v5.536h8.69zm-18.964-7.122h8.69V40.7h-8.69v1.566zm5.137-10.275h8.69v-1.566h-8.69v1.566zm8.69 1.586h-8.69v5.537h8.69v-5.537zM28.793 40.7v1.566h8.69V40.7h-8.69zm-1.586 3.152h-8.69v5.536h8.69v-5.536zM2.651 53.349h50.698v-2.376H2.651v2.376z" fill="#fff"/><path d="M31.089 20.364h-6.178a.793.793 0 01-.793-.793v-3.116a.793.793 0 01.793-.793h6.178a.793.793 0 01.793.793v3.117a.793.793 0 01-.793.792zm-.793-3.116h-4.592v1.53h4.592v-1.53zm-8.671 3.116h-6.177a.793.793 0 01-.793-.793v-3.116a.793.793 0 01.793-.793h6.177a.793.793 0 01.793.793v3.117a.793.793 0 01-.793.792zm-.793-3.116h-4.591v1.53h4.591v-1.53zm19.72 3.116h-6.177a.793.793 0 01-.793-.793v-3.116a.793.793 0 01.793-.793h6.177a.793.793 0 01.792.793v3.117a.793.793 0 01-.792.792zm-.793-3.116h-4.592v1.53h4.592v-1.53z" fill="#fff"/><path d="M1.858 49.388H4.47V18.013a.793.793 0 01.333-.647L27.541 1.211a.794.794 0 01.918 0l22.737 16.155a.793.793 0 01.333.647v31.375h2.613a.792.792 0 01.793.793v3.96a.793.793 0 01-.793.792H1.858a.792.792 0 01-.793-.793v-3.96a.793.793 0 01.793-.792zm48.085-30.966L28 2.831 6.057 18.422v30.966H9.4v-26.41a.793.793 0 01.793-.793h35.614a.793.793 0 01.793.793v26.41h3.343V18.422zM16.932 49.388v-9.481a.793.793 0 01.793-.793h4.345V29.63a.793.793 0 01.793-.793h10.275a.793.793 0 01.793.793v9.483h4.344a.793.793 0 01.793.793v9.48h5.945V23.77H10.987v25.618h5.945zm20.55 0v-5.536h-8.689v5.536h8.69zm-18.964-7.122h8.69V40.7h-8.69v1.566zm5.137-10.275h8.69v-1.566h-8.69v1.566zm8.69 1.586h-8.69v5.537h8.69v-5.537zM28.793 40.7v1.566h8.69V40.7h-8.69zm-1.586 3.152h-8.69v5.536h8.69v-5.536zM2.651 53.349h50.698v-2.376H2.651v2.376z" stroke="#fff" stroke-width=".4"/><path d="M31.089 20.364h-6.178a.793.793 0 01-.793-.793v-3.116a.793.793 0 01.793-.793h6.178a.793.793 0 01.793.793v3.117a.793.793 0 01-.793.792zm-.793-3.116h-4.592v1.53h4.592v-1.53zm-8.671 3.116h-6.177a.793.793 0 01-.793-.793v-3.116a.793.793 0 01.793-.793h6.177a.793.793 0 01.793.793v3.117a.793.793 0 01-.793.792zm-.793-3.116h-4.591v1.53h4.591v-1.53zm19.72 3.116h-6.177a.793.793 0 01-.793-.793v-3.116a.793.793 0 01.793-.793h6.177a.793.793 0 01.792.793v3.117a.793.793 0 01-.792.792zm-.793-3.116h-4.592v1.53h4.592v-1.53z" stroke="#fff" stroke-width=".4"/></svg>